# xmcd
#
# Track frame offsets: 
#        150
#        16612
#        31430
#        46297
#        66590
#        88855
#        107907
#        118987
#        136317
#        149672
#        162677
#        175737
#        190482
#        202477
#
# Disc length: 2926 seconds
#
# Revision: 0
# Processed by: cddbd v1.4PL0 Copyright (c) Steve Scherf et al.
# Submitted via: ExactAudioCopy v0.95a3
#
DISCID=e00b6c0e
DTITLE=Slim Dusty - Natural High
DYEAR=1994
DGENRE=Country
TTITLE0=Under the spell of highway one
TTITLE1=Natural high
TTITLE2=The calling
TTITLE3=Kokoda track
TTITLE4=Don't you worry about that
TTITLE5=When your pants begin to go
TTITLE6=Yellow old bullcatcher
TTITLE7=Taking his chance
TTITLE8=Some things never
TTITLE9=Annie Johnson
TTITLE10=Red roo roadhouse
TTITLE11=Dick drumduff and me
TTITLE12=The blue gumtree ball
TTITLE13=As leichhardt saw it then
EXTD=
EXTT0=
EXTT1=
EXTT2=
EXTT3=
EXTT4=
EXTT5=
EXTT6=
EXTT7=
EXTT8=
EXTT9=
EXTT10=
EXTT11=
EXTT12=
EXTT13=
PLAYORDER=
